%TF.GenerationSoftware,KiCad,Pcbnew,9.0.0*%
%TF.CreationDate,2025-09-30T20:54:45+02:00*%
%TF.ProjectId,hcms_pmod,68636d73-5f70-46d6-9f64-2e6b69636164,rev?*%
%TF.SameCoordinates,Original*%
%TF.FileFunction,Legend,Bot*%
%TF.FilePolarity,Positive*%
%FSLAX46Y46*%
G04 Gerber Fmt 4.6, Leading zero omitted, Abs format (unit mm)*
G04 Created by KiCad (PCBNEW 9.0.0) date 2025-09-30 20:54:45*
%MOMM*%
%LPD*%
G01*
G04 APERTURE LIST*
%ADD10C,0.100000*%
%ADD11C,0.000000*%
G04 APERTURE END LIST*
D10*
X113847419Y-103553884D02*
X112847419Y-103553884D01*
X113323609Y-103553884D02*
X113323609Y-104125312D01*
X113847419Y-104125312D02*
X112847419Y-104125312D01*
X113752180Y-105172931D02*
X113799800Y-105125312D01*
X113799800Y-105125312D02*
X113847419Y-104982455D01*
X113847419Y-104982455D02*
X113847419Y-104887217D01*
X113847419Y-104887217D02*
X113799800Y-104744360D01*
X113799800Y-104744360D02*
X113704561Y-104649122D01*
X113704561Y-104649122D02*
X113609323Y-104601503D01*
X113609323Y-104601503D02*
X113418847Y-104553884D01*
X113418847Y-104553884D02*
X113275990Y-104553884D01*
X113275990Y-104553884D02*
X113085514Y-104601503D01*
X113085514Y-104601503D02*
X112990276Y-104649122D01*
X112990276Y-104649122D02*
X112895038Y-104744360D01*
X112895038Y-104744360D02*
X112847419Y-104887217D01*
X112847419Y-104887217D02*
X112847419Y-104982455D01*
X112847419Y-104982455D02*
X112895038Y-105125312D01*
X112895038Y-105125312D02*
X112942657Y-105172931D01*
X113847419Y-105601503D02*
X112847419Y-105601503D01*
X112847419Y-105601503D02*
X113561704Y-105934836D01*
X113561704Y-105934836D02*
X112847419Y-106268169D01*
X112847419Y-106268169D02*
X113847419Y-106268169D01*
X113799800Y-106696741D02*
X113847419Y-106839598D01*
X113847419Y-106839598D02*
X113847419Y-107077693D01*
X113847419Y-107077693D02*
X113799800Y-107172931D01*
X113799800Y-107172931D02*
X113752180Y-107220550D01*
X113752180Y-107220550D02*
X113656942Y-107268169D01*
X113656942Y-107268169D02*
X113561704Y-107268169D01*
X113561704Y-107268169D02*
X113466466Y-107220550D01*
X113466466Y-107220550D02*
X113418847Y-107172931D01*
X113418847Y-107172931D02*
X113371228Y-107077693D01*
X113371228Y-107077693D02*
X113323609Y-106887217D01*
X113323609Y-106887217D02*
X113275990Y-106791979D01*
X113275990Y-106791979D02*
X113228371Y-106744360D01*
X113228371Y-106744360D02*
X113133133Y-106696741D01*
X113133133Y-106696741D02*
X113037895Y-106696741D01*
X113037895Y-106696741D02*
X112942657Y-106744360D01*
X112942657Y-106744360D02*
X112895038Y-106791979D01*
X112895038Y-106791979D02*
X112847419Y-106887217D01*
X112847419Y-106887217D02*
X112847419Y-107125312D01*
X112847419Y-107125312D02*
X112895038Y-107268169D01*
X113466466Y-107696741D02*
X113466466Y-108458646D01*
X113847419Y-108934836D02*
X112847419Y-108934836D01*
X112847419Y-108934836D02*
X112847419Y-109315788D01*
X112847419Y-109315788D02*
X112895038Y-109411026D01*
X112895038Y-109411026D02*
X112942657Y-109458645D01*
X112942657Y-109458645D02*
X113037895Y-109506264D01*
X113037895Y-109506264D02*
X113180752Y-109506264D01*
X113180752Y-109506264D02*
X113275990Y-109458645D01*
X113275990Y-109458645D02*
X113323609Y-109411026D01*
X113323609Y-109411026D02*
X113371228Y-109315788D01*
X113371228Y-109315788D02*
X113371228Y-108934836D01*
X113847419Y-109934836D02*
X112847419Y-109934836D01*
X112847419Y-109934836D02*
X113561704Y-110268169D01*
X113561704Y-110268169D02*
X112847419Y-110601502D01*
X112847419Y-110601502D02*
X113847419Y-110601502D01*
X112847419Y-111268169D02*
X112847419Y-111458645D01*
X112847419Y-111458645D02*
X112895038Y-111553883D01*
X112895038Y-111553883D02*
X112990276Y-111649121D01*
X112990276Y-111649121D02*
X113180752Y-111696740D01*
X113180752Y-111696740D02*
X113514085Y-111696740D01*
X113514085Y-111696740D02*
X113704561Y-111649121D01*
X113704561Y-111649121D02*
X113799800Y-111553883D01*
X113799800Y-111553883D02*
X113847419Y-111458645D01*
X113847419Y-111458645D02*
X113847419Y-111268169D01*
X113847419Y-111268169D02*
X113799800Y-111172931D01*
X113799800Y-111172931D02*
X113704561Y-111077693D01*
X113704561Y-111077693D02*
X113514085Y-111030074D01*
X113514085Y-111030074D02*
X113180752Y-111030074D01*
X113180752Y-111030074D02*
X112990276Y-111077693D01*
X112990276Y-111077693D02*
X112895038Y-111172931D01*
X112895038Y-111172931D02*
X112847419Y-111268169D01*
X113847419Y-112125312D02*
X112847419Y-112125312D01*
X112847419Y-112125312D02*
X112847419Y-112363407D01*
X112847419Y-112363407D02*
X112895038Y-112506264D01*
X112895038Y-112506264D02*
X112990276Y-112601502D01*
X112990276Y-112601502D02*
X113085514Y-112649121D01*
X113085514Y-112649121D02*
X113275990Y-112696740D01*
X113275990Y-112696740D02*
X113418847Y-112696740D01*
X113418847Y-112696740D02*
X113609323Y-112649121D01*
X113609323Y-112649121D02*
X113704561Y-112601502D01*
X113704561Y-112601502D02*
X113799800Y-112506264D01*
X113799800Y-112506264D02*
X113847419Y-112363407D01*
X113847419Y-112363407D02*
X113847419Y-112125312D01*
D11*
%TO.C,G\u002A\u002A\u002A*%
G36*
X132567639Y-106567656D02*
G01*
X132574643Y-106575563D01*
X132590043Y-106594609D01*
X132612525Y-106623117D01*
X132640773Y-106659410D01*
X132673474Y-106701809D01*
X132709314Y-106748637D01*
X132802133Y-106869882D01*
X132891574Y-106985623D01*
X132971981Y-107088431D01*
X133043519Y-107178511D01*
X133106354Y-107256068D01*
X133160648Y-107321309D01*
X133206569Y-107374438D01*
X133244279Y-107415661D01*
X133303445Y-107477776D01*
X133346915Y-107464867D01*
X133348210Y-107464477D01*
X133373407Y-107455819D01*
X133408665Y-107442415D01*
X133449489Y-107426023D01*
X133491385Y-107408401D01*
X133531446Y-107391720D01*
X133564641Y-107379388D01*
X133585284Y-107373761D01*
X133592385Y-107375166D01*
X133592079Y-107378650D01*
X133589750Y-107396487D01*
X133585429Y-107426765D01*
X133579473Y-107467050D01*
X133572241Y-107514906D01*
X133564089Y-107567896D01*
X133548066Y-107673484D01*
X133532245Y-107783270D01*
X133518689Y-107883708D01*
X133507482Y-107973965D01*
X133498708Y-108053207D01*
X133492453Y-108120599D01*
X133488802Y-108175308D01*
X133487838Y-108216499D01*
X133489646Y-108243339D01*
X133494312Y-108254994D01*
X133495077Y-108255448D01*
X133517094Y-108262390D01*
X133554701Y-108267223D01*
X133607369Y-108269955D01*
X133674571Y-108270596D01*
X133755776Y-108269154D01*
X133850457Y-108265640D01*
X133958084Y-108260061D01*
X134078129Y-108252427D01*
X134210063Y-108242747D01*
X134257543Y-108239073D01*
X134309722Y-108235073D01*
X134354699Y-108231667D01*
X134390216Y-108229025D01*
X134414014Y-108227315D01*
X134423833Y-108226707D01*
X134425474Y-108228561D01*
X134428401Y-108242701D01*
X134430424Y-108267725D01*
X134431179Y-108300000D01*
X134431001Y-108316365D01*
X134429643Y-108345569D01*
X134427240Y-108365756D01*
X134424141Y-108373292D01*
X134416950Y-108372857D01*
X134395308Y-108371300D01*
X134361576Y-108368778D01*
X134318008Y-108365459D01*
X134266855Y-108361516D01*
X134210370Y-108357117D01*
X134176194Y-108354475D01*
X134038846Y-108344605D01*
X133916425Y-108337090D01*
X133809100Y-108331934D01*
X133717040Y-108329141D01*
X133640414Y-108328714D01*
X133579393Y-108330657D01*
X133534145Y-108334974D01*
X133504840Y-108341669D01*
X133501912Y-108342927D01*
X133494583Y-108348873D01*
X133489651Y-108359473D01*
X133487064Y-108376643D01*
X133486769Y-108402301D01*
X133488714Y-108438363D01*
X133492844Y-108486744D01*
X133499108Y-108549364D01*
X133499740Y-108555331D01*
X133504399Y-108595798D01*
X133510816Y-108647500D01*
X133518610Y-108707696D01*
X133527401Y-108773648D01*
X133536808Y-108842616D01*
X133546449Y-108911861D01*
X133555945Y-108978644D01*
X133564915Y-109040226D01*
X133572977Y-109093867D01*
X133579752Y-109136829D01*
X133584859Y-109166373D01*
X133588420Y-109185069D01*
X133591883Y-109207638D01*
X133590620Y-109220906D01*
X133582549Y-109225527D01*
X133565592Y-109222152D01*
X133537667Y-109211433D01*
X133496697Y-109194024D01*
X133457969Y-109177766D01*
X133417218Y-109161133D01*
X133381752Y-109147122D01*
X133356395Y-109137673D01*
X133354535Y-109137024D01*
X133329808Y-109128870D01*
X133314643Y-109126219D01*
X133303601Y-109129037D01*
X133291246Y-109137295D01*
X133289653Y-109138504D01*
X133268857Y-109157472D01*
X133239127Y-109188787D01*
X133201064Y-109231710D01*
X133155267Y-109285502D01*
X133102338Y-109349424D01*
X133042875Y-109422736D01*
X132977479Y-109504701D01*
X132906749Y-109594578D01*
X132831286Y-109691629D01*
X132751690Y-109795115D01*
X132668561Y-109904296D01*
X132641295Y-109940132D01*
X132611510Y-109978644D01*
X132589497Y-110006021D01*
X132574204Y-110023436D01*
X132564581Y-110032064D01*
X132559577Y-110033077D01*
X132558143Y-110027649D01*
X132557836Y-110025120D01*
X132552659Y-110008299D01*
X132542302Y-109981456D01*
X132528346Y-109948127D01*
X132512370Y-109911844D01*
X132495955Y-109876142D01*
X132480680Y-109844555D01*
X132468127Y-109820617D01*
X132459874Y-109807863D01*
X132444011Y-109796261D01*
X132413276Y-109790296D01*
X132401122Y-109790866D01*
X132362554Y-109796529D01*
X132311562Y-109807833D01*
X132249942Y-109824252D01*
X132179491Y-109845262D01*
X132102005Y-109870338D01*
X132019282Y-109898954D01*
X131933119Y-109930586D01*
X131911642Y-109938591D01*
X131883879Y-109948555D01*
X131864851Y-109954886D01*
X131857790Y-109956472D01*
X131858725Y-109952904D01*
X131863687Y-109936713D01*
X131871960Y-109910658D01*
X131882453Y-109878204D01*
X131891789Y-109849315D01*
X131923442Y-109746890D01*
X131948145Y-109658811D01*
X131965964Y-109584808D01*
X131976967Y-109524607D01*
X131981220Y-109477938D01*
X131981266Y-109475694D01*
X131980154Y-109449807D01*
X131974167Y-109433068D01*
X131961084Y-109418973D01*
X131941761Y-109405665D01*
X131902584Y-109387408D01*
X131848233Y-109368948D01*
X131778158Y-109350077D01*
X131758304Y-109345013D01*
X131730128Y-109336993D01*
X131711212Y-109330481D01*
X131704865Y-109326539D01*
X131710921Y-109320171D01*
X131727414Y-109304189D01*
X131752748Y-109280123D01*
X131785336Y-109249469D01*
X131823593Y-109213727D01*
X131865934Y-109174394D01*
X131883442Y-109158133D01*
X131950491Y-109095089D01*
X132011422Y-109036553D01*
X132065366Y-108983422D01*
X132111451Y-108936592D01*
X132148809Y-108896960D01*
X132176570Y-108865422D01*
X132193865Y-108842874D01*
X132199823Y-108830214D01*
X132199813Y-108829544D01*
X132193341Y-108817090D01*
X132173304Y-108809886D01*
X132146629Y-108807820D01*
X132103407Y-108809249D01*
X132045800Y-108814348D01*
X131974550Y-108823009D01*
X131890401Y-108835126D01*
X131794095Y-108850590D01*
X131686374Y-108869294D01*
X131567981Y-108891131D01*
X131439657Y-108915994D01*
X131393568Y-108925061D01*
X131333417Y-108936711D01*
X131279851Y-108946873D01*
X131234748Y-108955203D01*
X131199984Y-108961354D01*
X131177435Y-108964983D01*
X131168976Y-108965744D01*
X131168996Y-108964818D01*
X131174391Y-108953773D01*
X131186857Y-108932496D01*
X131204857Y-108903542D01*
X131226854Y-108869470D01*
X131250937Y-108832157D01*
X131285078Y-108776540D01*
X131311920Y-108729054D01*
X131330833Y-108690911D01*
X131341183Y-108663328D01*
X131342339Y-108647519D01*
X131336190Y-108638667D01*
X131314734Y-108620355D01*
X131279146Y-108596417D01*
X131229991Y-108567183D01*
X131167835Y-108532985D01*
X131093243Y-108494153D01*
X131006780Y-108451020D01*
X130953239Y-108424896D01*
X130898532Y-108398415D01*
X130848121Y-108374222D01*
X130804584Y-108353547D01*
X130770497Y-108337622D01*
X130748439Y-108327675D01*
X130744584Y-108326003D01*
X130718806Y-108314243D01*
X130700618Y-108304947D01*
X130693748Y-108300000D01*
X130694727Y-108298861D01*
X130706271Y-108292068D01*
X130728065Y-108281277D01*
X130756643Y-108268238D01*
X130778648Y-108258217D01*
X130814079Y-108241586D01*
X130858931Y-108220212D01*
X130910508Y-108195386D01*
X130966118Y-108168398D01*
X131023067Y-108140541D01*
X131044781Y-108129836D01*
X131129288Y-108087279D01*
X131199136Y-108050465D01*
X131254709Y-108019169D01*
X131296393Y-107993168D01*
X131324574Y-107972237D01*
X131339637Y-107956150D01*
X131340928Y-107953328D01*
X131340017Y-107933831D01*
X131328529Y-107902409D01*
X131306424Y-107858983D01*
X131273662Y-107803472D01*
X131230202Y-107735794D01*
X131220515Y-107721055D01*
X131199193Y-107687837D01*
X131182469Y-107660666D01*
X131171846Y-107642026D01*
X131168829Y-107634403D01*
X131173406Y-107634603D01*
X131192191Y-107637408D01*
X131223720Y-107642847D01*
X131266113Y-107650574D01*
X131317493Y-107660246D01*
X131375981Y-107671519D01*
X131439700Y-107684048D01*
X131577304Y-107710793D01*
X131702976Y-107733969D01*
X131814442Y-107753099D01*
X131912459Y-107768306D01*
X131997787Y-107779715D01*
X132071187Y-107787451D01*
X132082360Y-107788403D01*
X132129664Y-107791450D01*
X132163181Y-107791373D01*
X132184792Y-107787912D01*
X132196379Y-107780810D01*
X132199823Y-107769809D01*
X132199460Y-107767673D01*
X132190649Y-107752500D01*
X132170710Y-107727658D01*
X132140509Y-107694041D01*
X132100914Y-107652541D01*
X132052792Y-107604054D01*
X131997009Y-107549473D01*
X131934434Y-107489693D01*
X131865934Y-107425606D01*
X131824634Y-107387235D01*
X131786238Y-107351351D01*
X131753468Y-107320504D01*
X131727909Y-107296195D01*
X131711150Y-107279926D01*
X131704778Y-107273196D01*
X131706830Y-107271184D01*
X131721046Y-107265660D01*
X131745898Y-107258350D01*
X131778070Y-107250289D01*
X131806678Y-107243187D01*
X131859198Y-107227786D01*
X131905091Y-107211257D01*
X131941200Y-107194799D01*
X131964366Y-107179609D01*
X131965721Y-107178294D01*
X131976475Y-107156010D01*
X131979672Y-107119402D01*
X131975328Y-107068557D01*
X131963458Y-107003563D01*
X131944077Y-106924508D01*
X131917201Y-106831477D01*
X131882847Y-106724560D01*
X131876843Y-106706170D01*
X131868131Y-106677375D01*
X131862839Y-106656838D01*
X131861940Y-106648120D01*
X131868906Y-106649264D01*
X131888928Y-106655192D01*
X131919466Y-106665226D01*
X131958021Y-106678540D01*
X132002093Y-106694313D01*
X132068136Y-106717919D01*
X132165995Y-106751022D01*
X132249665Y-106776700D01*
X132319311Y-106795001D01*
X132375101Y-106805972D01*
X132417203Y-106809657D01*
X132426943Y-106809529D01*
X132444967Y-106806592D01*
X132457645Y-106796816D01*
X132471265Y-106776323D01*
X132479835Y-106760313D01*
X132494163Y-106730204D01*
X132510492Y-106693296D01*
X132526696Y-106654271D01*
X132540681Y-106620509D01*
X132553200Y-106592478D01*
X132562578Y-106573859D01*
X132567455Y-106567544D01*
X132567639Y-106567656D01*
G37*
%TD*%
M02*
