%TF.GenerationSoftware,KiCad,Pcbnew,9.0.0*%
%TF.CreationDate,2025-09-30T20:54:45+02:00*%
%TF.ProjectId,hcms_pmod,68636d73-5f70-46d6-9f64-2e6b69636164,rev?*%
%TF.SameCoordinates,Original*%
%TF.FileFunction,Copper,L1,Top*%
%TF.FilePolarity,Positive*%
%FSLAX46Y46*%
G04 Gerber Fmt 4.6, Leading zero omitted, Abs format (unit mm)*
G04 Created by KiCad (PCBNEW 9.0.0) date 2025-09-30 20:54:45*
%MOMM*%
%LPD*%
G01*
G04 APERTURE LIST*
%TA.AperFunction,ComponentPad*%
%ADD10R,1.700000X1.700000*%
%TD*%
%TA.AperFunction,ComponentPad*%
%ADD11O,1.700000X1.700000*%
%TD*%
%TA.AperFunction,ComponentPad*%
%ADD12C,1.700000*%
%TD*%
%TA.AperFunction,ComponentPad*%
%ADD13C,1.600000*%
%TD*%
%TA.AperFunction,ComponentPad*%
%ADD14R,1.397000X1.397000*%
%TD*%
%TA.AperFunction,ComponentPad*%
%ADD15C,1.397000*%
%TD*%
%TA.AperFunction,Conductor*%
%ADD16C,0.200000*%
%TD*%
G04 APERTURE END LIST*
D10*
%TO.P,J1,1,IO1*%
%TO.N,/CE*%
X118410000Y-101560000D03*
D11*
%TO.P,J1,2,IO2*%
%TO.N,/DATA_IN*%
X118410000Y-104100000D03*
%TO.P,J1,3,IO3*%
%TO.N,/RS*%
X118410000Y-106640000D03*
%TO.P,J1,4,IO4*%
%TO.N,/CLK*%
X118410000Y-109180000D03*
%TO.P,J1,5,GND*%
%TO.N,GND*%
X118410000Y-111720000D03*
D12*
%TO.P,J1,6,VCC*%
%TO.N,VCC*%
X118410000Y-114260000D03*
D11*
%TO.P,J1,7,IO5*%
%TO.N,/RESET*%
X115870000Y-101560000D03*
%TO.P,J1,8,IO6*%
%TO.N,unconnected-(J1-IO6-Pad8)*%
X115870000Y-104100000D03*
%TO.P,J1,9,IO7*%
%TO.N,unconnected-(J1-IO7-Pad9)*%
X115870000Y-106640000D03*
%TO.P,J1,10,IO8*%
%TO.N,unconnected-(J1-IO8-Pad10)*%
X115870000Y-109180000D03*
%TO.P,J1,11,GND*%
%TO.N,GND*%
X115870000Y-111720000D03*
%TO.P,J1,12,VCC*%
%TO.N,VCC*%
X115870000Y-114260000D03*
%TD*%
D13*
%TO.P,C1,1*%
%TO.N,VCC*%
X122550000Y-109950000D03*
%TO.P,C1,2*%
%TO.N,GND*%
X125050000Y-109950000D03*
%TD*%
D14*
%TO.P,U1,1,DATA_OUT*%
%TO.N,unconnected-(U1-DATA_OUT-Pad1)*%
X136370000Y-114720000D03*
D15*
%TO.P,U1,2,OSC*%
%TO.N,unconnected-(U1-OSC-Pad2)*%
X136370000Y-112180000D03*
%TO.P,U1,3,V_LED*%
%TO.N,VCC*%
X136370000Y-109640000D03*
%TO.P,U1,4,DATA_IN*%
%TO.N,/DATA_IN*%
X136370000Y-107100000D03*
%TO.P,U1,5,RS*%
%TO.N,/RS*%
X136370000Y-104560000D03*
%TO.P,U1,6,CLK*%
%TO.N,/CLK*%
X136370000Y-102020000D03*
%TO.P,U1,7,\u002ACE*%
%TO.N,/CE*%
X128750000Y-102020000D03*
%TO.P,U1,8,BLANK*%
%TO.N,GND*%
X128750000Y-104560000D03*
%TO.P,U1,9,GND*%
X128750000Y-107100000D03*
%TO.P,U1,10,SEL*%
%TO.N,VCC*%
X128750000Y-109640000D03*
%TO.P,U1,11,V_LOGIC*%
X128750000Y-112180000D03*
%TO.P,U1,12,\u002ARESET*%
%TO.N,/RESET*%
X128750000Y-114720000D03*
%TD*%
D16*
%TO.N,/CE*%
X128151500Y-103746408D02*
X128151500Y-103414208D01*
X127751500Y-104856286D02*
X127751500Y-104524086D01*
X127516600Y-105091186D02*
X127751500Y-104856286D01*
X128151500Y-103414208D02*
X128151500Y-102618500D01*
X119961000Y-103457554D02*
X119961000Y-104685169D01*
X125807793Y-106799992D02*
X126042693Y-106565092D01*
X119160000Y-102655140D02*
X119160000Y-102656554D01*
X122075822Y-106799992D02*
X125475593Y-106799992D01*
X118410000Y-101560000D02*
X118410000Y-101905140D01*
X119394900Y-102891454D02*
X119961000Y-103457554D01*
X127751500Y-104524086D02*
X127751500Y-104146408D01*
X119961000Y-104685169D02*
X119961000Y-105017369D01*
X118410000Y-101905140D02*
X119160000Y-102655140D01*
X119160000Y-102656554D02*
X119394900Y-102891454D01*
X127751500Y-104146408D02*
X127916600Y-103981308D01*
X121508722Y-106565092D02*
X121743622Y-106799992D01*
X126042693Y-106565092D02*
X127516600Y-105091186D01*
X125475593Y-106799992D02*
X125807793Y-106799992D01*
X127916600Y-103981308D02*
X128151500Y-103746408D01*
X128151500Y-102618500D02*
X128750000Y-102020000D01*
X119961000Y-105017369D02*
X120195900Y-105252269D01*
X120195900Y-105252269D02*
X121508722Y-106565092D01*
X121743622Y-106799992D02*
X122075822Y-106799992D01*
%TO.N,/RESET*%
X119561000Y-105183056D02*
X119561000Y-104850856D01*
X118886760Y-102949000D02*
X117259000Y-102949000D01*
X128750000Y-114720000D02*
X127342000Y-113312000D01*
X121577936Y-107199992D02*
X121343036Y-106965092D01*
X119561000Y-103623240D02*
X118886760Y-102949000D01*
X121343036Y-106965092D02*
X119795900Y-105417956D01*
X121910136Y-107199992D02*
X121577936Y-107199992D01*
X117259000Y-102949000D02*
X115870000Y-101560000D01*
X119795900Y-105417956D02*
X119561000Y-105183056D01*
X125641279Y-107199992D02*
X121910136Y-107199992D01*
X127342000Y-113312000D02*
X127342000Y-108824900D01*
X127342000Y-108824900D02*
X125717092Y-107199992D01*
X119561000Y-104850856D02*
X119561000Y-103623240D01*
X125717092Y-107199992D02*
X125641279Y-107199992D01*
%TO.N,/DATA_IN*%
X114719000Y-102036760D02*
X114719000Y-101083240D01*
X127350500Y-103980308D02*
X127750500Y-103580308D01*
X127750500Y-101605993D02*
X128335993Y-101020500D01*
X117735760Y-104100000D02*
X116346760Y-102711000D01*
X118410000Y-104100000D02*
X117735760Y-104100000D01*
X115393240Y-100409000D02*
X119561000Y-100409000D01*
X134280000Y-105905000D02*
X135175000Y-105905000D01*
X135175000Y-105905000D02*
X136370000Y-107100000D01*
X125641693Y-106398992D02*
X127350500Y-104690186D01*
X129395500Y-101020500D02*
X134280000Y-105905000D01*
X114719000Y-101083240D02*
X115393240Y-100409000D01*
X121909722Y-106398992D02*
X125641693Y-106398992D01*
X115393240Y-102711000D02*
X114719000Y-102036760D01*
X120362000Y-104851269D02*
X121909722Y-106398992D01*
X127350500Y-104690186D02*
X127350500Y-103980308D01*
X119561000Y-100409000D02*
X119561000Y-102490454D01*
X116346760Y-102711000D02*
X115393240Y-102711000D01*
X127750500Y-103580308D02*
X127750500Y-101605993D01*
X120362000Y-103291454D02*
X120362000Y-104851269D01*
X119561000Y-102490454D02*
X120362000Y-103291454D01*
X128335993Y-101020500D02*
X129395500Y-101020500D01*
%TO.N,/CLK*%
X127349500Y-101439893D02*
X127349500Y-101772093D01*
X136370000Y-102020000D02*
X130962100Y-102020000D01*
X118886760Y-105489000D02*
X119561000Y-106163240D01*
X126949500Y-104524086D02*
X126212546Y-105261039D01*
X119561000Y-106163240D02*
X119561000Y-108029000D01*
X122075822Y-105997992D02*
X121419411Y-105341580D01*
X121419411Y-105341580D02*
X120763000Y-104685169D01*
X127349500Y-103414208D02*
X127184400Y-103579308D01*
X114318000Y-102202860D02*
X114318000Y-104175760D01*
X114318000Y-101249340D02*
X114318000Y-101870660D01*
X126949500Y-103814208D02*
X126949500Y-103814210D01*
X119962000Y-100242900D02*
X119727100Y-100008000D01*
X114318000Y-100917140D02*
X114318000Y-101249340D01*
X128169893Y-100619500D02*
X127934993Y-100854400D01*
X129796500Y-100854400D02*
X129561600Y-100619500D01*
X114318000Y-101870660D02*
X114318000Y-102202860D01*
X115631240Y-105489000D02*
X118886760Y-105489000D01*
X120763000Y-103457554D02*
X120763000Y-103125354D01*
X127349500Y-102916600D02*
X127349500Y-103414208D01*
X126212546Y-105261039D02*
X125475593Y-105997992D01*
X119962000Y-102324354D02*
X119962000Y-100575100D01*
X127349500Y-101772093D02*
X127349500Y-102584400D01*
X120528100Y-102890454D02*
X119962000Y-102324354D01*
X114318000Y-104175760D02*
X115631240Y-105489000D01*
X126949500Y-103814210D02*
X126949500Y-104146408D01*
X125475593Y-105997992D02*
X122075822Y-105997992D01*
X128280500Y-100619500D02*
X128169893Y-100619500D01*
X119561000Y-108029000D02*
X118410000Y-109180000D01*
X127584400Y-101204993D02*
X127450000Y-101339393D01*
X114318000Y-100607000D02*
X114318000Y-100917140D01*
X119669100Y-99950000D02*
X114975000Y-99950000D01*
X127184400Y-103579308D02*
X127184401Y-103579308D01*
X129561600Y-100619500D02*
X129229400Y-100619500D01*
X127349500Y-102584400D02*
X127349500Y-102916600D01*
X120763000Y-104685169D02*
X120763000Y-103457554D01*
X120763000Y-103125354D02*
X120528100Y-102890454D01*
X126949500Y-104146408D02*
X126949500Y-104524086D01*
X130962100Y-102020000D02*
X129796500Y-100854400D01*
X114975000Y-99950000D02*
X114318000Y-100607000D01*
X127450000Y-101339393D02*
X127349500Y-101439893D01*
X119962000Y-100575100D02*
X119962000Y-100242900D01*
X127184400Y-103579308D02*
X126949500Y-103814208D01*
X127934993Y-100854400D02*
X127584400Y-101204993D01*
X128502093Y-100619500D02*
X128280500Y-100619500D01*
X129229400Y-100619500D02*
X128502093Y-100619500D01*
X119727100Y-100008000D02*
X119669100Y-99950000D01*
%TO.N,/RS*%
X125775000Y-107825000D02*
X121392760Y-107825000D01*
X128125000Y-116175000D02*
X126941000Y-114991000D01*
X134875000Y-108400000D02*
X132475000Y-110800000D01*
X136825000Y-108400000D02*
X134875000Y-108400000D01*
X117259000Y-107791000D02*
X118410000Y-106640000D01*
X136370000Y-104560000D02*
X137425000Y-105615000D01*
X126941000Y-114991000D02*
X126941000Y-108991000D01*
X118886760Y-110331000D02*
X117933240Y-110331000D01*
X137425000Y-105615000D02*
X137425000Y-107800000D01*
X117933240Y-110331000D02*
X117259000Y-109656760D01*
X132475000Y-115275000D02*
X131575000Y-116175000D01*
X131575000Y-116175000D02*
X128125000Y-116175000D01*
X117259000Y-109656760D02*
X117259000Y-107791000D01*
X132475000Y-110800000D02*
X132475000Y-115275000D01*
X126941000Y-108991000D02*
X125775000Y-107825000D01*
X137425000Y-107800000D02*
X136825000Y-108400000D01*
X121392760Y-107825000D02*
X118886760Y-110331000D01*
%TD*%
M02*
