%TF.GenerationSoftware,KiCad,Pcbnew,9.0.0*%
%TF.CreationDate,2025-09-30T20:54:45+02:00*%
%TF.ProjectId,hcms_pmod,68636d73-5f70-46d6-9f64-2e6b69636164,rev?*%
%TF.SameCoordinates,Original*%
%TF.FileFunction,Legend,Top*%
%TF.FilePolarity,Positive*%
%FSLAX46Y46*%
G04 Gerber Fmt 4.6, Leading zero omitted, Abs format (unit mm)*
G04 Created by KiCad (PCBNEW 9.0.0) date 2025-09-30 20:54:45*
%MOMM*%
%LPD*%
G01*
G04 APERTURE LIST*
%ADD10C,0.150000*%
%ADD11C,0.120000*%
%ADD12C,0.400000*%
%ADD13C,0.800000*%
%ADD14C,0.300000*%
%ADD15C,0.152400*%
G04 APERTURE END LIST*
D10*
X115316666Y-116779819D02*
X115316666Y-117494104D01*
X115316666Y-117494104D02*
X115269047Y-117636961D01*
X115269047Y-117636961D02*
X115173809Y-117732200D01*
X115173809Y-117732200D02*
X115030952Y-117779819D01*
X115030952Y-117779819D02*
X114935714Y-117779819D01*
X116316666Y-117779819D02*
X115745238Y-117779819D01*
X116030952Y-117779819D02*
X116030952Y-116779819D01*
X116030952Y-116779819D02*
X115935714Y-116922676D01*
X115935714Y-116922676D02*
X115840476Y-117017914D01*
X115840476Y-117017914D02*
X115745238Y-117065533D01*
X123633333Y-107809580D02*
X123585714Y-107857200D01*
X123585714Y-107857200D02*
X123442857Y-107904819D01*
X123442857Y-107904819D02*
X123347619Y-107904819D01*
X123347619Y-107904819D02*
X123204762Y-107857200D01*
X123204762Y-107857200D02*
X123109524Y-107761961D01*
X123109524Y-107761961D02*
X123061905Y-107666723D01*
X123061905Y-107666723D02*
X123014286Y-107476247D01*
X123014286Y-107476247D02*
X123014286Y-107333390D01*
X123014286Y-107333390D02*
X123061905Y-107142914D01*
X123061905Y-107142914D02*
X123109524Y-107047676D01*
X123109524Y-107047676D02*
X123204762Y-106952438D01*
X123204762Y-106952438D02*
X123347619Y-106904819D01*
X123347619Y-106904819D02*
X123442857Y-106904819D01*
X123442857Y-106904819D02*
X123585714Y-106952438D01*
X123585714Y-106952438D02*
X123633333Y-107000057D01*
X124585714Y-107904819D02*
X124014286Y-107904819D01*
X124300000Y-107904819D02*
X124300000Y-106904819D01*
X124300000Y-106904819D02*
X124204762Y-107047676D01*
X124204762Y-107047676D02*
X124109524Y-107142914D01*
X124109524Y-107142914D02*
X124014286Y-107190533D01*
X132014819Y-109211904D02*
X132824342Y-109211904D01*
X132824342Y-109211904D02*
X132919580Y-109164285D01*
X132919580Y-109164285D02*
X132967200Y-109116666D01*
X132967200Y-109116666D02*
X133014819Y-109021428D01*
X133014819Y-109021428D02*
X133014819Y-108830952D01*
X133014819Y-108830952D02*
X132967200Y-108735714D01*
X132967200Y-108735714D02*
X132919580Y-108688095D01*
X132919580Y-108688095D02*
X132824342Y-108640476D01*
X132824342Y-108640476D02*
X132014819Y-108640476D01*
X133014819Y-107640476D02*
X133014819Y-108211904D01*
X133014819Y-107926190D02*
X132014819Y-107926190D01*
X132014819Y-107926190D02*
X132157676Y-108021428D01*
X132157676Y-108021428D02*
X132252914Y-108116666D01*
X132252914Y-108116666D02*
X132300533Y-108211904D01*
X136369999Y-116725680D02*
X136369999Y-116487585D01*
X136608094Y-116582823D02*
X136369999Y-116487585D01*
X136369999Y-116487585D02*
X136131904Y-116582823D01*
X136512856Y-116297109D02*
X136369999Y-116487585D01*
X136369999Y-116487585D02*
X136227142Y-116297109D01*
X136370000Y-115635319D02*
X136370000Y-115873414D01*
X136131905Y-115778176D02*
X136370000Y-115873414D01*
X136370000Y-115873414D02*
X136608095Y-115778176D01*
X136227143Y-116063890D02*
X136370000Y-115873414D01*
X136370000Y-115873414D02*
X136512857Y-116063890D01*
D11*
%TO.C,J1*%
X105770000Y-101180000D02*
X111770000Y-101180000D01*
X105770000Y-101940000D02*
X105770000Y-101180000D01*
X105770000Y-103720000D02*
X111770000Y-103720000D01*
X105770000Y-104480000D02*
X105770000Y-103720000D01*
X105770000Y-106260000D02*
X111770000Y-106260000D01*
X105770000Y-107020000D02*
X105770000Y-106260000D01*
X105770000Y-108800000D02*
X111770000Y-108800000D01*
X105770000Y-109560000D02*
X105770000Y-108800000D01*
X105770000Y-111340000D02*
X111770000Y-111340000D01*
X105770000Y-112100000D02*
X105770000Y-111340000D01*
X105770000Y-113880000D02*
X111770000Y-113880000D01*
X105770000Y-114640000D02*
X105770000Y-113880000D01*
X111770000Y-100230000D02*
X111770000Y-115590000D01*
X111770000Y-101940000D02*
X105770000Y-101940000D01*
X111770000Y-104480000D02*
X105770000Y-104480000D01*
X111770000Y-107020000D02*
X105770000Y-107020000D01*
X111770000Y-109560000D02*
X105770000Y-109560000D01*
X111770000Y-112100000D02*
X105770000Y-112100000D01*
X111770000Y-113980000D02*
X105770000Y-113980000D01*
X111770000Y-114100000D02*
X105770000Y-114100000D01*
X111770000Y-114220000D02*
X105770000Y-114220000D01*
X111770000Y-114340000D02*
X105770000Y-114340000D01*
X111770000Y-114460000D02*
X105770000Y-114460000D01*
X111770000Y-114580000D02*
X105770000Y-114580000D01*
X111770000Y-114640000D02*
X105770000Y-114640000D01*
X111770000Y-115590000D02*
X114430000Y-115590000D01*
X114430000Y-100230000D02*
X111770000Y-100230000D01*
X114430000Y-102830000D02*
X111770000Y-102830000D01*
X114430000Y-105370000D02*
X111770000Y-105370000D01*
X114430000Y-107910000D02*
X111770000Y-107910000D01*
X114430000Y-110450000D02*
X111770000Y-110450000D01*
X114430000Y-112990000D02*
X111770000Y-112990000D01*
X114430000Y-115590000D02*
X114430000Y-100230000D01*
D12*
X114660000Y-112660000D02*
X114660000Y-110660000D01*
X114810000Y-112660000D02*
X114810000Y-110660000D01*
D11*
X114827071Y-101180000D02*
X114430000Y-101180000D01*
X114827071Y-101940000D02*
X114430000Y-101940000D01*
X114827071Y-103720000D02*
X114430000Y-103720000D01*
X114827071Y-104480000D02*
X114430000Y-104480000D01*
X114827071Y-106260000D02*
X114430000Y-106260000D01*
X114827071Y-107020000D02*
X114430000Y-107020000D01*
X114827071Y-108800000D02*
X114430000Y-108800000D01*
X114827071Y-109560000D02*
X114430000Y-109560000D01*
X114827071Y-111340000D02*
X114430000Y-111340000D01*
X114827071Y-112100000D02*
X114430000Y-112100000D01*
X114827071Y-113880000D02*
X114430000Y-113880000D01*
X114827071Y-114640000D02*
X114430000Y-114640000D01*
D13*
X117160000Y-112460000D02*
X117160000Y-110810000D01*
D11*
X117300000Y-113880000D02*
X116912929Y-113880000D01*
X117300000Y-114640000D02*
X116912929Y-114640000D01*
X117367071Y-101180000D02*
X116912929Y-101180000D01*
X117367071Y-101940000D02*
X116912929Y-101940000D01*
X117367071Y-103720000D02*
X116912929Y-103720000D01*
X117367071Y-104480000D02*
X116912929Y-104480000D01*
X117367071Y-106260000D02*
X116912929Y-106260000D01*
X117367071Y-107020000D02*
X116912929Y-107020000D01*
X117367071Y-108800000D02*
X116912929Y-108800000D01*
X117367071Y-109560000D02*
X116912929Y-109560000D01*
X117367071Y-111340000D02*
X116912929Y-111340000D01*
X117367071Y-112100000D02*
X116912929Y-112100000D01*
D12*
X119510000Y-112660000D02*
X119510000Y-110660000D01*
D14*
X119610000Y-110610000D02*
X114560000Y-110610000D01*
X119610000Y-112710000D02*
X114560000Y-112710000D01*
D11*
X119680000Y-114260000D02*
X119680000Y-115530000D01*
X119680000Y-115530000D02*
X118410000Y-115530000D01*
X119710000Y-112810000D02*
X114430000Y-112810000D01*
X114430000Y-110450000D01*
X119710000Y-110450000D01*
X119710000Y-112810000D01*
%TO.C,C1*%
X121680000Y-108580000D02*
X121680000Y-109285000D01*
X121680000Y-108580000D02*
X125920000Y-108580000D01*
X121680000Y-110615000D02*
X121680000Y-111320000D01*
X121680000Y-111320000D02*
X125920000Y-111320000D01*
X125920000Y-108580000D02*
X125920000Y-109285000D01*
X125920000Y-110615000D02*
X125920000Y-111320000D01*
D15*
%TO.C,U1*%
X127353000Y-99353000D02*
X127353000Y-117387000D01*
X127353000Y-117387000D02*
X137767000Y-117387000D01*
X137767000Y-99353000D02*
X127353000Y-99353000D01*
X137767000Y-117387000D02*
X137767000Y-99353000D01*
%TD*%
M02*
