M48
; DRILL file {KiCad 9.0.0} date 2025-09-30T20:54:27+0200
; FORMAT={-:-/ absolute / inch / decimal}
; #@! TF.CreationDate,2025-09-30T20:54:27+02:00
; #@! TF.GenerationSoftware,Kicad,Pcbnew,9.0.0
; #@! TF.FileFunction,Plated,1,2,PTH
FMAT,2
INCH
; #@! TA.AperFunction,Plated,PTH,ComponentDrill
T1C0.0315
; #@! TA.AperFunction,Plated,PTH,ComponentDrill
T2C0.0350
; #@! TA.AperFunction,Plated,PTH,ComponentDrill
T3C0.0394
%
G90
G05
T1
X4.8248Y-4.3287
X4.9232Y-4.3287
T2
X5.0689Y-4.0165
X5.0689Y-4.1165
X5.0689Y-4.2165
X5.0689Y-4.3165
X5.0689Y-4.4165
X5.0689Y-4.5165
X5.3689Y-4.0165
X5.3689Y-4.1165
X5.3689Y-4.2165
X5.3689Y-4.3165
X5.3689Y-4.4165
X5.3689Y-4.5165
T3
X4.5618Y-3.9984
X4.5618Y-4.0984
X4.5618Y-4.1984
X4.5618Y-4.2984
X4.5618Y-4.3984
X4.5618Y-4.4984
X4.6618Y-3.9984
X4.6618Y-4.0984
X4.6618Y-4.1984
X4.6618Y-4.2984
X4.6618Y-4.3984
X4.6618Y-4.4984
M30
